<mxfile host="app.diagrams.net" modified="2024-02-27T10:21:24.849Z" agent="Mozilla/5.0 (X11; Linux x86_64; rv:109.0) Gecko/20100101 Firefox/112.0" version="23.1.6" etag="67mIFCzdfhKPBP-JMECD" type="github">
  <diagram name="Страница — 1" id="eV7tQtSZALF4OR5hqJvE">
    <mxGraphModel>
      <root>
        <mxCell id="0" />
        <mxCell id="1" parent="0" />
      </root>
    </mxGraphModel>
  </diagram>
</mxfile>
